<svg width="123" height="96" viewBox="0 0 123 96" fill="none" xmlns="http://www.w3.org/2000/svg">
<g clip-path="url(#clip0_221:9)">
<path fill-rule="evenodd" clip-rule="evenodd" d="M12.6 26.42H109.37V70.15H12.6V26.42ZM22.15 58.65V36.86H33.45C35.5367 36.86 37.0267 37.27 37.92 38.09C38.3886 38.5488 38.7519 39.1038 38.985 39.7167C39.2181 40.3296 39.3153 40.9858 39.27 41.64C39.3438 42.9016 39.0447 44.1571 38.41 45.25C37.8819 46.0646 37.0689 46.653 36.13 46.9V47.11C38.9367 47.5967 40.3433 49.5133 40.35 52.86C40.4219 54.3854 39.9227 55.8828 38.95 57.06C38.396 57.6215 37.7257 58.0549 36.9863 58.3296C36.2469 58.6043 35.4562 58.7137 34.67 58.65H22.15ZM31.84 50H29.12V53.55H31.81C32.81 53.55 33.27 52.96 33.27 51.78C33.27 50.6 32.79 50 31.84 50ZM31.32 41.67H29.12V44.91H31.29C32.17 44.91 32.61 44.37 32.61 43.29C32.61 42.21 32.18 41.67 31.32 41.67V41.67ZM57.51 58.67H43.57V36.86H50.57V53.07H57.57V58.65L57.51 58.67ZM59.17 47.79C59.17 43.79 59.9133 40.8933 61.4 39.1C62.88 37.27 65.57 36.36 69.45 36.36C73.33 36.36 76.01 37.27 77.45 39.1C78.89 40.93 79.68 43.82 79.68 47.79C79.7091 49.4689 79.5514 51.1459 79.21 52.79C78.9223 54.0638 78.3704 55.263 77.59 56.31C76.7755 57.3399 75.6715 58.1026 74.42 58.5C72.8029 59.0057 71.1138 59.2422 69.42 59.2C67.7262 59.2431 66.0368 59.0066 64.42 58.5C63.166 58.1077 62.0606 57.3441 61.25 56.31C60.4608 55.2682 59.908 54.067 59.63 52.79C59.2836 51.1466 59.1259 49.4691 59.16 47.79H59.17ZM66.66 44.17V53.23H69.55C70.2591 53.2734 70.9691 53.1607 71.63 52.9C72.06 52.68 72.27 52.17 72.27 51.38V42.3H69.34C68.6573 42.2639 67.9749 42.3765 67.34 42.63C66.91 42.85 66.7 43.36 66.7 44.15L66.66 44.17ZM94.1 52.23V51.29H92.33V46H100.73V57.6C97.9899 58.643 95.0819 59.1751 92.15 59.17C88.15 59.17 85.42 58.2067 83.96 56.28C83.1779 55.2364 82.632 54.0354 82.36 52.76C82.0321 51.1142 81.8812 49.4379 81.91 47.76C81.8753 46.0809 82.033 44.4033 82.38 42.76C82.6644 41.4781 83.243 40.2799 84.07 39.26C85.6033 37.3067 88.5633 36.33 92.95 36.33C94.1347 36.349 95.317 36.4425 96.49 36.61C97.5702 36.7233 98.6379 36.9342 99.68 37.24L98.63 42.57C96.9466 42.2651 95.2407 42.1012 93.53 42.08C92.4482 42.027 91.3649 42.1451 90.32 42.43C90.0324 42.5272 89.7856 42.7178 89.6189 42.9715C89.4521 43.2252 89.3751 43.5274 89.4 43.83V53.7H91.7C92.3211 53.7332 92.9427 53.6449 93.53 53.44C93.91 53.26 94.1 52.86 94.1 52.23V52.23ZM8.32 0H114.56C116.765 0.00528141 118.878 0.883546 120.437 2.44271C121.996 4.00186 122.875 6.11502 122.88 8.32V87.19C122.872 89.3942 121.993 91.5058 120.434 93.0644C118.876 94.623 116.764 95.5021 114.56 95.51H8.32C6.11502 95.5047 4.00186 94.6265 2.44271 93.0673C0.883546 91.5081 0.00528141 89.395 0 87.19L0 8.32C0.00528141 6.11502 0.883546 4.00186 2.44271 2.44271C4.00186 0.883546 6.11502 0.00528141 8.32 0V0ZM118 20.1H5.29V88C5.28868 88.3024 5.34726 88.6021 5.46238 88.8817C5.5775 89.1614 5.74686 89.4155 5.9607 89.6293C6.17454 89.8431 6.42862 90.0125 6.70826 90.1276C6.98791 90.2427 7.28759 90.3013 7.59 90.3H115.59C115.892 90.3013 116.192 90.2427 116.472 90.1276C116.751 90.0125 117.005 89.8431 117.219 89.6293C117.433 89.4155 117.603 89.1614 117.718 88.8817C117.833 88.6021 117.891 88.3024 117.89 88V20.1H118ZM106.64 7.22C107.453 7.22 108.248 7.46105 108.923 7.91266C109.599 8.36427 110.126 9.00617 110.437 9.75717C110.748 10.5082 110.83 11.3346 110.671 12.1318C110.512 12.9291 110.121 13.6614 109.546 14.2362C108.971 14.811 108.239 15.2024 107.442 15.361C106.645 15.5196 105.818 15.4382 105.067 15.1271C104.316 14.8161 103.674 14.2893 103.223 13.6134C102.771 12.9375 102.53 12.1429 102.53 11.33C102.53 10.24 102.963 9.19457 103.734 8.42379C104.505 7.65302 105.55 7.22 106.64 7.22V7.22ZM78.8 7.22C79.6129 7.22 80.4075 7.46105 81.0834 7.91266C81.7593 8.36427 82.2861 9.00617 82.5971 9.75717C82.9082 10.5082 82.9896 11.3346 82.831 12.1318C82.6724 12.9291 82.281 13.6614 81.7062 14.2362C81.1314 14.811 80.3991 15.2024 79.6018 15.361C78.8046 15.5196 77.9782 15.4382 77.2272 15.1271C76.4762 14.8161 75.8343 14.2893 75.3827 13.6134C74.931 12.9375 74.69 12.1429 74.69 11.33C74.69 10.24 75.123 9.19457 75.8938 8.42379C76.6646 7.65302 77.71 7.22 78.8 7.22V7.22ZM92.72 7.22C93.5329 7.22 94.3275 7.46105 95.0034 7.91266C95.6793 8.36427 96.2061 9.00617 96.5171 9.75717C96.8282 10.5082 96.9096 11.3346 96.751 12.1318C96.5924 12.9291 96.201 13.6614 95.6262 14.2362C95.0514 14.811 94.3191 15.2024 93.5218 15.361C92.7246 15.5196 91.8982 15.4382 91.1472 15.1271C90.3962 14.8161 89.7543 14.2893 89.3027 13.6134C88.851 12.9375 88.61 12.1429 88.61 11.33C88.61 10.24 89.043 9.19457 89.8138 8.42379C90.5846 7.65302 91.63 7.22 92.72 7.22V7.22ZM66.87 84.74C65.9874 84.6732 65.1627 84.2755 64.5609 83.6265C63.9591 82.9775 63.6248 82.1251 63.6248 81.24C63.6248 80.3549 63.9591 79.5025 64.5609 78.8535C65.1627 78.2045 65.9874 77.8068 66.87 77.74H106.52C107.403 77.8068 108.227 78.2045 108.829 78.8535C109.431 79.5025 109.765 80.3549 109.765 81.24C109.765 82.1251 109.431 82.9775 108.829 83.6265C108.227 84.2755 107.403 84.6732 106.52 84.74H66.87ZM15 84.74C14.1362 84.6475 13.3372 84.2389 12.7566 83.5928C12.1759 82.9467 11.8547 82.1087 11.8547 81.24C11.8547 80.3713 12.1759 79.5333 12.7566 78.8872C13.3372 78.2411 14.1362 77.8325 15 77.74H51.72C52.5838 77.8325 53.3828 78.2411 53.9634 78.8872C54.5441 79.5333 54.8653 80.3713 54.8653 81.24C54.8653 82.1087 54.5441 82.9467 53.9634 83.5928C53.3828 84.2389 52.5838 84.6475 51.72 84.74H15Z" fill="white"/>
</g>
<defs>
<clipPath id="clip0_221:9">
<rect width="122.88" height="95.51" fill="white"/>
</clipPath>
</defs>
</svg>
