<svg width="123" height="77" viewBox="0 0 123 77" fill="none" xmlns="http://www.w3.org/2000/svg">
<g clip-path="url(#clip0_230:2)">
<path d="M47.5298 61.261L47.6798 61.411C49.2843 63.0993 50.1639 65.3488 50.1303 67.6777C50.0966 70.0066 49.1524 72.2297 47.4998 73.871C47.4998 73.871 47.3898 74.001 47.3398 74.031C45.6637 75.634 43.4286 76.5204 41.1095 76.5017C38.7903 76.4831 36.5698 75.5608 34.9198 73.931C25.2598 65.071 11.3298 53.931 2.81976 44.681C1.92008 43.838 1.20491 42.8177 0.719378 41.6845C0.233851 40.5513 -0.0114875 39.3297 -0.00115132 38.0969C0.00918488 36.864 0.274971 35.6467 0.779432 34.5218C1.28389 33.3969 2.01607 32.3887 2.92976 31.561C8.33976 24.851 27.3698 9.41097 34.9298 2.56097C36.4454 1.08762 38.4345 0.199651 40.5433 0.0550233C42.6521 -0.089604 44.7438 0.518486 46.4464 1.77113C48.149 3.02377 49.352 4.83974 49.8415 6.89601C50.331 8.95229 50.0753 11.1155 49.1198 13.001C49.0153 13.2173 48.8652 13.4083 48.6798 13.561L21.6798 38.341C25.9998 42.531 29.7698 45.651 33.5398 48.771C38.4291 52.6742 43.1027 56.8404 47.5398 61.251L47.5298 61.261ZM75.3498 61.261L75.1998 61.411C73.5952 63.0993 72.7156 65.3488 72.7493 67.6777C72.7829 70.0066 73.7271 72.2297 75.3798 73.871C75.3798 73.871 75.4898 74.001 75.5398 74.031C77.2177 75.646 79.4613 76.5399 81.7902 76.5212C84.119 76.5025 86.348 75.5728 87.9998 73.931C97.6598 65.071 111.59 53.931 120.1 44.681C121 43.8387 121.716 42.819 122.202 41.6861C122.689 40.5533 122.935 39.3319 122.926 38.0991C122.916 36.8662 122.651 35.6487 122.148 34.5234C121.644 33.3981 120.913 32.3894 120 31.561C114.59 24.851 95.5598 9.41097 87.9998 2.56097C86.4924 1.04794 84.4927 0.125263 82.3633 -0.0397123C80.2339 -0.204687 78.1159 0.398969 76.3935 1.66177C74.6711 2.92456 73.4582 4.76287 72.975 6.84324C72.4918 8.92361 72.7702 11.1083 73.7598 13.001C73.864 13.2146 74.0103 13.4051 74.1898 13.561L101.19 38.341C96.8698 42.531 93.0898 45.651 89.3298 48.771C84.4404 52.6742 79.7668 56.8404 75.3298 61.251L75.3498 61.261Z" fill="white"/>
</g>
<defs>
<clipPath id="clip0_230:2">
<rect width="122.88" height="76.5" fill="white"/>
</clipPath>
</defs>
</svg>
