<svg width="123" height="123" viewBox="0 0 123 123" fill="none" xmlns="http://www.w3.org/2000/svg">
<g clip-path="url(#clip0_225:18)">
<path d="M61.4396 6.04868e-05C75.6595 -0.0040042 89.4409 4.92291 100.435 13.9412C111.43 22.9595 118.957 35.5112 121.734 49.4573C124.511 63.4034 122.366 77.881 115.665 90.423C108.964 102.965 98.121 112.795 84.9842 118.239C71.8474 123.682 57.2295 124.402 43.6215 120.275C30.0136 116.149 18.2575 107.431 10.3568 95.608C2.45601 83.785 -1.10059 69.5881 0.293045 55.4366C1.68668 41.2851 7.94431 28.0548 17.9996 18.0001C23.6963 12.2843 30.4671 7.75151 37.9222 4.66235C45.3774 1.5732 53.3698 -0.0112838 61.4396 6.04868e-05V6.04868e-05ZM32.2196 79.3901L52.0996 59.4601L32.2196 43.2501V79.3901ZM54.2896 61.2401L33.7896 81.7901H88.9096L69.3296 61.2401L62.8696 66.7501C62.6158 66.958 62.2978 67.0717 61.9696 67.0717C61.6414 67.0717 61.3234 66.958 61.0696 66.7501L54.2896 61.2201V61.2401ZM71.4696 59.4201L90.6596 79.5501V43.0701L71.4696 59.4201ZM33.9996 41.0901L61.8996 63.8501L88.6496 41.0901H33.9996ZM99.3996 23.4501C90.6106 14.6637 79.047 9.19642 66.679 7.97969C54.311 6.76297 41.9038 9.87207 31.571 16.7773C21.2383 23.6825 13.6193 33.9567 10.0122 45.8494C6.40506 57.7421 7.0329 70.5175 11.7887 81.9992C16.5446 93.4809 25.1342 102.959 36.0942 108.817C47.0542 114.676 59.7065 116.554 71.8956 114.13C84.0847 111.707 95.0565 105.132 102.942 95.5261C110.827 85.9203 115.138 73.8778 115.14 61.4501C115.149 54.3914 113.764 47.4003 111.063 40.8789C108.361 34.3575 104.398 28.4344 99.3996 23.4501V23.4501Z" fill="white"/>
</g>
<defs>
<clipPath id="clip0_225:18">
<rect width="122.88" height="122.88" fill="white"/>
</clipPath>
</defs>
</svg>
