<svg width="800" height="800" viewBox="0 0 800 800" fill="none" xmlns="http://www.w3.org/2000/svg">
<circle cx="400" cy="400" r="400" fill="#008080"/>
<path d="M267.953 315.469H202.141V498H175.281V315.469H109.609V293.25H267.953V315.469ZM333.203 293.25L400.141 460.312L467.078 293.25H502.094V498H475.094V418.266L477.625 332.203L410.406 498H389.734L322.656 332.625L325.328 418.266V498H298.328V293.25H333.203ZM610.094 406.734C586.938 400.078 570.062 391.922 559.469 382.266C548.969 372.516 543.719 360.516 543.719 346.266C543.719 330.141 550.141 316.828 562.984 306.328C575.922 295.734 592.703 290.438 613.328 290.438C627.391 290.438 639.906 293.156 650.875 298.594C661.938 304.031 670.469 311.531 676.469 321.094C682.562 330.656 685.609 341.109 685.609 352.453H658.469C658.469 340.078 654.531 330.375 646.656 323.344C638.781 316.219 627.672 312.656 613.328 312.656C600.016 312.656 589.609 315.609 582.109 321.516C574.703 327.328 571 335.438 571 345.844C571 354.188 574.516 361.266 581.547 367.078C588.672 372.797 600.719 378.047 617.688 382.828C634.75 387.609 648.062 392.906 657.625 398.719C667.281 404.438 674.406 411.141 679 418.828C683.688 426.516 686.031 435.562 686.031 445.969C686.031 462.562 679.562 475.875 666.625 485.906C653.688 495.844 636.391 500.812 614.734 500.812C600.672 500.812 587.547 498.141 575.359 492.797C563.172 487.359 553.75 479.953 547.094 470.578C540.531 461.203 537.25 450.562 537.25 438.656H564.391C564.391 451.031 568.938 460.828 578.031 468.047C587.219 475.172 599.453 478.734 614.734 478.734C628.984 478.734 639.906 475.828 647.5 470.016C655.094 464.203 658.891 456.281 658.891 446.25C658.891 436.219 655.375 428.484 648.344 423.047C641.312 417.516 628.562 412.078 610.094 406.734Z" fill="white"/>
<path d="M267.953 315.469V316.469H268.953V315.469H267.953ZM202.141 315.469V314.469H201.141V315.469H202.141ZM202.141 498V499H203.141V498H202.141ZM175.281 498H174.281V499H175.281V498ZM175.281 315.469H176.281V314.469H175.281V315.469ZM109.609 315.469H108.609V316.469H109.609V315.469ZM109.609 293.25V292.25H108.609V293.25H109.609ZM267.953 293.25H268.953V292.25H267.953V293.25ZM267.953 314.469H202.141V316.469H267.953V314.469ZM201.141 315.469V498H203.141V315.469H201.141ZM202.141 497H175.281V499H202.141V497ZM176.281 498V315.469H174.281V498H176.281ZM175.281 314.469H109.609V316.469H175.281V314.469ZM110.609 315.469V293.25H108.609V315.469H110.609ZM109.609 294.25H267.953V292.25H109.609V294.25ZM266.953 293.25V315.469H268.953V293.25H266.953ZM333.203 293.25L334.131 292.878L333.88 292.25H333.203V293.25ZM400.141 460.312L399.212 460.684L400.141 463.001L401.069 460.684L400.141 460.312ZM467.078 293.25V292.25H466.402L466.15 292.878L467.078 293.25ZM502.094 293.25H503.094V292.25H502.094V293.25ZM502.094 498V499H503.094V498H502.094ZM475.094 498H474.094V499H475.094V498ZM475.094 418.266L474.094 418.236L474.094 418.251V418.266H475.094ZM477.625 332.203L478.625 332.233L476.698 331.827L477.625 332.203ZM410.406 498V499H411.08L411.333 498.376L410.406 498ZM389.734 498L388.808 498.376L389.061 499H389.734V498ZM322.656 332.625L323.583 332.249L321.657 332.656L322.656 332.625ZM325.328 418.266H326.328V418.25L326.328 418.234L325.328 418.266ZM325.328 498V499H326.328V498H325.328ZM298.328 498H297.328V499H298.328V498ZM298.328 293.25V292.25H297.328V293.25H298.328ZM332.275 293.622L399.212 460.684L401.069 459.941L334.131 292.878L332.275 293.622ZM401.069 460.684L468.006 293.622L466.15 292.878L399.212 459.941L401.069 460.684ZM467.078 294.25H502.094V292.25H467.078V294.25ZM501.094 293.25V498H503.094V293.25H501.094ZM502.094 497H475.094V499H502.094V497ZM476.094 498V418.266H474.094V498H476.094ZM476.093 418.295L478.625 332.233L476.625 332.174L474.094 418.236L476.093 418.295ZM476.698 331.827L409.48 497.624L411.333 498.376L478.552 332.579L476.698 331.827ZM410.406 497H389.734V499H410.406V497ZM390.661 497.624L323.583 332.249L321.73 333.001L388.808 498.376L390.661 497.624ZM321.657 332.656L324.329 418.297L326.328 418.234L323.656 332.594L321.657 332.656ZM324.328 418.266V498H326.328V418.266H324.328ZM325.328 497H298.328V499H325.328V497ZM299.328 498V293.25H297.328V498H299.328ZM298.328 294.25H333.203V292.25H298.328V294.25ZM610.094 406.734L610.372 405.774L610.37 405.773L610.094 406.734ZM559.469 382.266L558.788 382.998L558.795 383.005L559.469 382.266ZM562.984 306.328L563.617 307.102L563.618 307.102L562.984 306.328ZM650.875 298.594L650.431 299.49L650.434 299.491L650.875 298.594ZM676.469 321.094L675.622 321.625L675.625 321.631L676.469 321.094ZM685.609 352.453V353.453H686.609V352.453H685.609ZM658.469 352.453H657.469V353.453H658.469V352.453ZM646.656 323.344L645.985 324.085L645.99 324.09L646.656 323.344ZM582.109 321.516L582.727 322.302L582.728 322.301L582.109 321.516ZM581.547 367.078L580.91 367.849L580.915 367.853L580.921 367.858L581.547 367.078ZM617.688 382.828L617.416 383.791L617.418 383.791L617.688 382.828ZM657.625 398.719L657.106 399.573L657.115 399.579L657.625 398.719ZM679 418.828L678.142 419.341L678.146 419.349L679 418.828ZM666.625 485.906L667.234 486.699L667.238 486.697L666.625 485.906ZM575.359 492.797L574.952 493.71L574.958 493.713L575.359 492.797ZM547.094 470.578L546.274 471.152L546.278 471.157L547.094 470.578ZM537.25 438.656V437.656H536.25V438.656H537.25ZM564.391 438.656H565.391V437.656H564.391V438.656ZM578.031 468.047L577.409 468.83L577.418 468.837L578.031 468.047ZM648.344 423.047L647.725 423.833L647.732 423.838L648.344 423.047ZM610.37 405.773C587.274 399.134 570.57 391.032 560.142 381.527L558.795 383.005C569.555 392.812 586.601 401.022 609.817 407.695L610.37 405.773ZM560.149 381.533C549.852 371.971 544.719 360.236 544.719 346.266H542.719C542.719 360.795 548.086 373.06 558.788 382.998L560.149 381.533ZM544.719 346.266C544.719 330.451 550.998 317.419 563.617 307.102L562.351 305.554C549.283 316.238 542.719 329.831 542.719 346.266H544.719ZM563.618 307.102C576.338 296.686 592.879 291.438 613.328 291.438V289.438C592.528 289.438 575.506 294.783 562.351 305.554L563.618 307.102ZM613.328 291.438C627.259 291.438 639.619 294.13 650.431 299.49L651.319 297.698C640.193 292.182 627.522 289.438 613.328 289.438V291.438ZM650.434 299.491C661.346 304.855 669.729 312.234 675.622 321.625L677.316 320.562C671.208 310.828 662.529 303.208 651.316 297.696L650.434 299.491ZM675.625 321.631C681.617 331.033 684.609 341.3 684.609 352.453H686.609C686.609 340.919 683.508 330.279 677.312 320.556L675.625 321.631ZM685.609 351.453H658.469V353.453H685.609V351.453ZM659.469 352.453C659.469 339.847 655.447 329.852 647.322 322.598L645.99 324.09C653.616 330.898 657.469 340.309 657.469 352.453H659.469ZM647.327 322.602C639.212 315.26 627.832 311.656 613.328 311.656V313.656C627.512 313.656 638.35 317.178 645.985 324.085L647.327 322.602ZM613.328 311.656C599.878 311.656 589.225 314.639 581.491 320.73L582.728 322.301C589.994 316.58 600.153 313.656 613.328 313.656V311.656ZM581.492 320.729C573.817 326.753 570 335.167 570 345.844H572C572 335.708 575.59 327.904 582.727 322.302L581.492 320.729ZM570 345.844C570 354.516 573.673 361.867 580.91 367.849L582.184 366.307C575.358 360.665 572 353.859 572 345.844H570ZM580.921 367.858C588.208 373.707 600.416 379.001 617.416 383.791L617.959 381.866C601.021 377.093 589.135 371.887 582.173 366.298L580.921 367.858ZM617.418 383.791C634.437 388.56 647.653 393.827 657.106 399.573L658.144 397.864C648.472 391.985 635.063 386.659 617.957 381.865L617.418 383.791ZM657.115 399.579C666.664 405.234 673.652 411.828 678.142 419.341L679.858 418.315C675.16 410.453 667.899 403.641 658.135 397.858L657.115 399.579ZM678.146 419.349C682.724 426.856 685.031 435.717 685.031 445.969H687.031C687.031 435.408 684.651 426.175 679.854 418.308L678.146 419.349ZM685.031 445.969C685.031 462.258 678.702 475.277 666.012 485.116L667.238 486.697C680.423 476.473 687.031 462.867 687.031 445.969H685.031ZM666.016 485.113C653.303 494.878 636.242 499.812 614.734 499.812V501.812C636.539 501.812 654.072 496.809 667.234 486.699L666.016 485.113ZM614.734 499.812C600.802 499.812 587.815 497.166 575.761 491.881L574.958 493.713C587.279 499.115 600.542 501.812 614.734 501.812V499.812ZM575.767 491.884C563.716 486.507 554.446 479.206 547.909 469.999L546.278 471.157C553.054 480.7 562.628 488.212 574.952 493.71L575.767 491.884ZM547.913 470.005C541.473 460.805 538.25 450.366 538.25 438.656H536.25C536.25 450.759 539.589 461.601 546.275 471.152L547.913 470.005ZM537.25 439.656H564.391V437.656H537.25V439.656ZM563.391 438.656C563.391 451.313 568.059 461.408 577.41 468.83L578.653 467.264C569.816 460.249 565.391 450.749 565.391 438.656H563.391ZM577.418 468.837C586.829 476.135 599.301 479.734 614.734 479.734V477.734C599.605 477.734 587.608 474.208 578.644 467.257L577.418 468.837ZM614.734 479.734C629.101 479.734 640.273 476.807 648.108 470.81L646.892 469.222C639.54 474.849 628.868 477.734 614.734 477.734V479.734ZM648.108 470.81C655.963 464.797 659.891 456.575 659.891 446.25H657.891C657.891 455.988 654.225 463.609 646.892 469.222L648.108 470.81ZM659.891 446.25C659.891 435.955 656.265 427.909 648.955 422.256L647.732 423.838C654.485 429.06 657.891 436.483 657.891 446.25H659.891ZM648.962 422.261C641.768 416.601 628.855 411.122 610.372 405.774L609.816 407.695C628.27 413.035 640.857 418.43 647.725 423.833L648.962 422.261Z" fill="black"/>
</svg>
