<svg width="77" height="81" viewBox="0 0 77 81" fill="none" xmlns="http://www.w3.org/2000/svg">
<ellipse cx="38.5" cy="40.5" rx="38.5" ry="40.5" fill="white"/>
<g clip-path="url(#clip0_224:16)">
<path fill-rule="evenodd" clip-rule="evenodd" d="M43.4524 33.6205C43.6855 33.6205 43.9135 33.6885 44.1074 33.816C44.3012 33.9435 44.4524 34.1247 44.5416 34.3367C44.6308 34.5487 44.6542 34.7819 44.6087 35.007C44.5632 35.232 44.4509 35.4388 44.286 35.601C44.1211 35.7633 43.9111 35.8737 43.6824 35.9185C43.4537 35.9633 43.2166 35.9403 43.0012 35.8525C42.7858 35.7647 42.6016 35.616 42.4721 35.4252C42.3425 35.2344 42.2734 35.0101 42.2734 34.7807C42.2734 34.473 42.3976 34.1779 42.6187 33.9603C42.8398 33.7427 43.1397 33.6205 43.4524 33.6205ZM44.9841 45.8417C46.8062 44.1586 48.1504 42.9149 47.8913 39.8915C47.8803 39.7365 47.921 39.5821 48.0074 39.452C48.0592 39.3754 48.1258 39.3096 48.2035 39.2584C48.2812 39.2072 48.3684 39.1716 48.4601 39.1536C48.5518 39.1356 48.6462 39.1357 48.7379 39.1537C48.8296 39.1717 48.9167 39.2074 48.9944 39.2587C49.1107 39.3345 49.235 39.3978 49.365 39.4476C49.4651 39.4862 49.5705 39.5099 49.6776 39.518C49.78 39.5292 49.8834 39.5292 49.9858 39.518C50.0432 39.4151 50.0882 39.3059 50.1198 39.1928L51.0129 36.6703C51.1737 36.0726 51.2719 35.4047 50.4591 35.4662C49.9973 35.5209 49.5599 35.7004 49.1953 35.9848C49.117 36.0446 49.0271 36.0879 48.9311 36.1121C48.835 36.1363 48.735 36.1408 48.6371 36.1254C48.545 36.11 48.4568 36.0768 48.3777 36.0278C48.2986 35.9787 48.2301 35.9148 48.1762 35.8397C48.1223 35.7646 48.0839 35.6797 48.0634 35.59C48.0429 35.5002 48.0405 35.4074 48.0566 35.3168C48.7264 31.4716 48.4183 28.9623 47.61 27.2528C46.9245 25.9175 45.8164 24.8378 44.4527 24.1766C41.6437 26.2772 39.6877 26.5189 37.7049 26.7562C36.0794 26.954 34.4583 27.1517 32.3058 28.6151C31.3634 29.2158 30.6443 30.1008 30.256 31.1376C29.9038 32.2576 29.8744 33.4518 30.1712 34.5873C30.218 34.7302 30.218 34.8839 30.1712 35.0267C30.1101 35.2003 29.9825 35.3434 29.8156 35.4255C29.6487 35.5076 29.4557 35.5222 29.278 35.4662L29.1753 35.431L28.626 35.2377C27.7865 34.9476 27.1881 34.7982 26.9603 35.33C26.8487 36.4022 26.8531 38.8456 27.8803 39.4389C28.0025 39.5076 28.1414 39.5425 28.2822 39.5399C28.4794 39.5395 28.6754 39.5083 28.8627 39.4476C28.9321 39.4252 29.0042 39.4119 29.0771 39.4081C29.2646 39.4046 29.446 39.4742 29.5816 39.6018C29.7171 39.7295 29.7958 39.9047 29.8005 40.0892C29.8809 43.2577 31.31 44.4838 33.0471 45.9428C33.3106 46.1669 33.5875 46.3822 33.7706 46.5624C37.0708 49.4496 41.0944 49.6034 44.283 46.5624L45.0199 45.8768L44.9841 45.8417ZM37.7853 40.5463C37.6813 40.4579 37.6158 40.3336 37.6022 40.1991C37.5966 40.1328 37.6044 40.0661 37.6251 40.0027C37.6458 39.9394 37.679 39.8807 37.7228 39.83C37.7669 39.7774 37.8213 39.7341 37.8826 39.7024C37.9439 39.6707 38.011 39.6513 38.0801 39.6454C38.1474 39.6399 38.2153 39.6476 38.2796 39.6679C38.344 39.6883 38.4037 39.7209 38.4552 39.764C38.6053 39.8918 38.7971 39.9621 38.9955 39.9621C39.194 39.9621 39.3858 39.8918 39.5359 39.764C39.5888 39.7187 39.6505 39.6844 39.7173 39.6633C39.7841 39.6421 39.8546 39.6346 39.9244 39.641C40.0574 39.6549 40.1802 39.7177 40.2683 39.8168H40.2906C40.3707 39.9212 40.4089 40.0511 40.3978 40.1815C40.3835 40.3169 40.3163 40.4414 40.2102 40.5287C39.8729 40.8105 39.4447 40.9652 39.0022 40.9652C38.5597 40.9652 38.1316 40.8105 37.7942 40.5287L37.7853 40.5463ZM23.5663 22.6166C30.7562 13.9022 38.9955 9.16492 45.1985 16.9169C52.6742 17.3036 55.6707 28.9887 49.7089 33.9061C49.7089 34.0028 49.7089 34.0995 49.6732 34.1962C49.8985 34.1282 50.1305 34.084 50.3654 34.0643C50.7855 34.0256 51.2082 34.1048 51.5845 34.2929C51.7875 34.398 51.9671 34.542 52.1127 34.7163C52.2584 34.8906 52.3673 35.0917 52.433 35.308C52.5937 35.8853 52.5797 36.4962 52.3928 37.0658C52.3942 37.0892 52.3942 37.1127 52.3928 37.1361L51.4997 39.6674C51.3886 40.0395 51.1622 40.3683 50.8521 40.6078C50.4859 40.8644 50.0335 40.973 49.5883 40.911L49.3293 40.8803C49.2891 43.7631 47.8511 45.1122 45.9666 46.8392C47.4403 51.7655 51.0084 52.5521 54.4828 53.2728C59.2522 54.2968 66 54.4286 66 64.0087V66.3026C66 66.4879 65.9252 66.6657 65.792 66.7967C65.6589 66.9277 65.4783 67.0014 65.2899 67.0014H12.7101C12.5217 67.0014 12.3411 66.9277 12.208 66.7967C12.0748 66.6657 12 66.4879 12 66.3026V64.2328C12 54.2177 19.0648 54.3495 24.1022 53.6068C27.7329 53.0707 31.4305 52.5258 32.8685 47.6303C32.605 47.4061 32.346 47.1908 32.0781 46.9535C30.2337 45.3891 28.6886 44.0795 28.3938 40.889H28.2286C27.8482 40.8895 27.4742 40.7926 27.1434 40.6078C26.5986 40.271 26.1788 39.7701 25.9466 39.1796C25.665 38.4965 25.5034 37.7714 25.4687 37.035C25.4687 36.8109 25.4687 36.3671 25.4687 35.9408C25.4716 35.6324 25.491 35.3244 25.5268 35.018C25.5327 34.9603 25.5478 34.904 25.5715 34.851C25.96 33.7875 26.5539 33.4447 27.331 33.4667L26.8174 33.1283C26.5405 29.7006 27.3578 23.746 23.5663 22.6166ZM34.3913 48.9398C34.262 48.8659 34.1368 48.7853 34.0162 48.6981C33.0471 51.4579 31.4439 52.8993 29.5504 53.7343C32.4393 55.4579 35.7753 56.3175 39.1518 56.2084C42.6612 56.1519 46.0637 55.0112 48.8783 52.9476C47.217 52.0248 45.7924 50.5746 44.8591 48.0521C42.059 50.5702 37.5888 50.869 34.3779 48.931L34.3913 48.9398ZM34.5432 33.6205C34.7763 33.6205 35.0043 33.6885 35.1982 33.816C35.392 33.9435 35.5432 34.1247 35.6324 34.3367C35.7216 34.5487 35.745 34.7819 35.6995 35.007C35.654 35.232 35.5417 35.4388 35.3768 35.601C35.2119 35.7633 35.0019 35.8737 34.7732 35.9185C34.5445 35.9633 34.3074 35.9403 34.092 35.8525C33.8766 35.7647 33.6924 35.616 33.5629 35.4252C33.4334 35.2344 33.3642 35.0101 33.3642 34.7807C33.3642 34.473 33.4884 34.1779 33.7095 33.9603C33.9306 33.7427 34.2305 33.6205 34.5432 33.6205ZM35.1773 42.2645H42.3672C43.0326 42.2382 43.2067 42.5853 42.9835 43.0643C41.0587 47.3358 34.7218 45.2308 34.637 43.0072C34.637 42.6776 34.7977 42.2909 35.1728 42.2645H35.1773ZM46.1318 33.036C46.1732 33.0888 46.2035 33.1491 46.2212 33.2135C46.2389 33.2778 46.2435 33.345 46.2348 33.4111C46.2261 33.4772 46.2042 33.541 46.1704 33.5988C46.1367 33.6566 46.0917 33.7072 46.038 33.7479C45.9844 33.7886 45.9231 33.8185 45.8577 33.8359C45.7923 33.8533 45.7241 33.8578 45.6569 33.8492C45.5897 33.8407 45.5249 33.8192 45.4662 33.7859C45.4074 33.7527 45.3559 33.7085 45.3146 33.6556C45.0067 33.1982 44.5399 32.867 44.0017 32.724C43.494 32.6295 42.9696 32.6767 42.4878 32.8602C42.4235 32.8813 42.3557 32.8897 42.2882 32.885C42.2207 32.8803 42.1548 32.8625 42.0942 32.8327C42.0337 32.8029 41.9797 32.7617 41.9354 32.7114C41.891 32.6611 41.8572 32.6026 41.8358 32.5394C41.8144 32.4762 41.8058 32.4095 41.8106 32.3431C41.8154 32.2766 41.8335 32.2118 41.8637 32.1522C41.894 32.0926 41.9359 32.0395 41.987 31.9958C42.0382 31.9522 42.0975 31.9189 42.1618 31.8978C43.7605 31.3661 45.1002 31.6957 46.1318 33.0448V33.036ZM35.8382 31.8978C35.9019 31.9186 35.9607 31.9515 36.0114 31.9947C36.0621 32.0378 36.1037 32.0904 36.1338 32.1494C36.1638 32.2083 36.1818 32.2725 36.1866 32.3383C36.1915 32.4041 36.1831 32.4702 36.162 32.5328C36.1409 32.5955 36.1075 32.6534 36.0636 32.7033C36.0197 32.7532 35.9663 32.7941 35.9064 32.8237C35.8465 32.8532 35.7812 32.8709 35.7144 32.8757C35.6475 32.8805 35.5803 32.8722 35.5167 32.8514C35.0335 32.6667 34.5069 32.621 33.9983 32.7196C33.4605 32.8659 32.9943 33.1983 32.6854 33.6556C32.6043 33.7623 32.4834 33.8329 32.3494 33.8518C32.2154 33.8708 32.0793 33.8366 31.9709 33.7567C31.8625 33.6769 31.7908 33.558 31.7716 33.4261C31.7523 33.2942 31.787 33.1602 31.8682 33.0536C32.8998 31.6957 34.2484 31.3749 35.8382 31.9066V31.8978ZM35.7311 42.9369H41.9831C41.4785 44.4223 36.3027 44.3915 35.7311 42.9369Z" fill="black"/>
</g>
<defs>
<clipPath id="clip0_224:16">
<rect width="54" height="54" fill="white" transform="translate(12 13)"/>
</clipPath>
</defs>
</svg>
