<svg width="64" height="64" viewBox="0 0 64 64" fill="none" xmlns="http://www.w3.org/2000/svg">
<g clip-path="url(#clip0_222:11)">
<path fill-rule="evenodd" clip-rule="evenodd" d="M63.347 19.2045C63.347 19.2045 62.7222 14.793 60.7993 12.856C58.3627 10.3083 55.6343 10.2918 54.387 10.1442C45.4377 9.49219 31.9966 9.49219 31.9966 9.49219H31.973C31.973 9.49219 18.5378 9.49219 9.58372 10.1442C8.33172 10.2965 5.60692 10.3072 3.17142 12.856C1.24742 14.793 0.635623 19.2045 0.635623 19.2045C0.635623 19.2045 -0.000976562 24.3813 -0.000976562 29.5688V34.4197C-0.000976562 39.5965 0.635623 44.784 0.635623 44.784C0.635623 44.784 1.26042 49.1954 3.17142 51.136C5.60692 53.6837 8.80772 53.601 10.2369 53.8727C15.3606 54.3617 32.0013 54.5093 32.0013 54.5093C32.0013 54.5093 45.4542 54.4856 54.4035 53.8455C55.6555 53.6978 58.3791 53.6825 60.8158 51.1336C62.7398 49.1966 63.3634 44.7804 63.3634 44.7804C63.3634 44.7804 64.0002 39.6037 64.0002 34.4161V29.5653C63.9872 24.3884 63.3505 19.201 63.3505 19.201L63.347 19.2045V19.2045ZM25.367 40.3052V22.318L42.6562 31.3417L25.367 40.3052V40.3052Z" fill="white"/>
</g>
<defs>
<clipPath id="clip0_222:11">
<rect width="64" height="64" fill="white"/>
</clipPath>
</defs>
</svg>
